<?xml version="1.0" encoding="UTF-8" standalone="no"?>
<svg
   version="1.0"
   width="1283.000000pt"
   height="1283.000000pt"
   viewBox="0 0 1283.000000 1283.000000"
   preserveAspectRatio="xMidYMid meet"
   id="svg861"
   sodipodi:docname="mac-tray-dark-x2.svg"
   inkscape:version="1.2.2 (b0a8486541, 2022-12-01)"
   xmlns:inkscape="http://www.inkscape.org/namespaces/inkscape"
   xmlns:sodipodi="http://sodipodi.sourceforge.net/DTD/sodipodi-0.dtd"
   xmlns="http://www.w3.org/2000/svg"
   xmlns:svg="http://www.w3.org/2000/svg">
  <defs
     id="defs865" />
  <sodipodi:namedview
     id="namedview863"
     pagecolor="#505050"
     bordercolor="#eeeeee"
     borderopacity="1"
     inkscape:showpageshadow="0"
     inkscape:pageopacity="0"
     inkscape:pagecheckerboard="0"
     inkscape:deskcolor="#505050"
     inkscape:document-units="pt"
     showgrid="false"
     inkscape:zoom="0.76056692"
     inkscape:cx="940.74562"
     inkscape:cy="784.28339"
     inkscape:window-width="1920"
     inkscape:window-height="1043"
     inkscape:window-x="0"
     inkscape:window-y="0"
     inkscape:window-maximized="1"
     inkscape:current-layer="g859" />
  <metadata
     id="metadata855">
Created by potrace 1.14, written by Peter Selinger 2001-2017
</metadata>
  <g
     transform="translate(0.000000,1283.000000) scale(0.100000,-0.100000)"
     fill="#000000"
     stroke="none"
     id="g859">
    <path
       d="M1255 10593 c-457 -41 -891 -222 -1081 -452 -120 -144 -170 -296 -161 -491 8 -166 55 -294 162 -439 118 -160 255 -267 660 -516 900 -553 1025 -636 1145 -761 287 -300 453 -642 527 -1089 28 -170 26 -633 -4 -805 -76 -432 -229 -758 -500 -1064 -171 -193 -356 -321 -1296 -902 -181 -112 -317 -217 -422 -325 -146 -151 -215 -268 -256 -429 -30 -118 -24 -280 15 -395 99 -292 396 -510 852 -626 447 -113 1079 -84 1561 72 317 103 580 259 805 477 100 97 182 212 947 1324 127 185 185 247 346 373 337 264 801 427 1380 487 196 19 721 16 910 -6 665 -77 1157 -286 1505 -638 91 -92 203 -249 925 -1303 49 -71 123 -165 164 -209 330 -341 800 -549 1411 -623 205 -24 667 -24 835 0 582 86 954 296 1082 610 74 181 71 412 -7 592 -60 139 -214 316 -385 445 -117 88 -166 117 -500 305 -691 388 -928 539 -1068 678 -190 189 -322 389 -422 637 -111 276 -165 581 -165 931 0 608 177 1083 558 1498 115 126 270 232 1007 694 193 120 391 249 441 287 232 173 385 376 440 580 25 93 23 280 -4 381 -80 298 -320 499 -736 618 -219 63 -347 81 -601 88 -709 18 -1312 -154 -1725 -492 -187 -154 -188 -155 -972 -1295 -215 -313 -273 -380 -434 -506 -272 -213 -605 -356 -1014 -438 -490 -97 -1127 -97 -1620 0 -488 96 -885 292 -1171 576 -74 74 -84 88 -794 1118 -232 337 -315 435 -480 565 -402 317 -967 480 -1639 473 -100 -1 -199 -3 -221 -5z"
       id="path857"
       inkscape:label="path857"
       style="fill:#e89316;fill-opacity:1" />
  </g>
</svg>
